HIERARCHY
ROOT Hips
{
	OFFSET 40.668713 100.492722 45.321842
	CHANNELS 6 Xposition Yposition Zposition Xrotation Yrotation Zrotation
	JOINT Chest
	{
		OFFSET -1.648991 13.538048 -0.395473
		CHANNELS 3 Xrotation Yrotation Zrotation
		JOINT Chest2
		{
			OFFSET -1.478477 21.103813 3.392605
			CHANNELS 3 Xrotation Yrotation Zrotation
			JOINT Chest3
			{
				OFFSET -1.196571 14.873505 0.408394
				CHANNELS 3 Xrotation Yrotation Zrotation
				JOINT Neck
				{
					OFFSET -1.266041 17.208923 0.930550
					CHANNELS 3 Xrotation Yrotation Zrotation
					JOINT Head
					{
						OFFSET 3.431087 8.706635 4.716965
						CHANNELS 3 Xrotation Yrotation Zrotation
						End Site
						{
							OFFSET 3.384552 8.746323 4.676994
						}
					}
				}
				JOINT LeftCollar
				{
					OFFSET 3.704624 13.654816 -1.275242
					CHANNELS 3 Xrotation Yrotation Zrotation
					JOINT LeftUpArm
					{
						OFFSET 5.839565 7.609680 -14.713650
						CHANNELS 3 Xrotation Yrotation Zrotation
						JOINT LeftLowArm
						{
							OFFSET 31.293961 9.777954 8.050278
							CHANNELS 3 Xrotation Yrotation Zrotation
							JOINT LeftHand
							{
								OFFSET 20.607498 6.930328 20.694160
								CHANNELS 3 Xrotation Yrotation Zrotation
								End Site
								{
									OFFSET 4.503883 1.514709 4.522823
								}
							}
						}
					}
				}
				JOINT RightCollar
				{
					OFFSET -0.789055 12.941483 5.805515
					CHANNELS 3 Xrotation Yrotation Zrotation
					JOINT RightUpArm
					{
						OFFSET -9.454926 4.885254 13.972649
						CHANNELS 3 Xrotation Yrotation Zrotation
						JOINT RightLowArm
						{
							OFFSET 23.164833 7.231888 23.469643
							CHANNELS 3 Xrotation Yrotation Zrotation
							JOINT RightHand
							{
								OFFSET 24.688530 12.530853 11.593468
								CHANNELS 3 Xrotation Yrotation Zrotation
								End Site
								{
									OFFSET 5.395912 2.738770 2.533867
								}
							}
						}
					}
				}
			}
		}
	}
	JOINT LeftUpLeg
	{
		OFFSET 6.898598 0.628540 -7.241093
		CHANNELS 3 Xrotation Yrotation Zrotation
		JOINT LeftLowLeg
		{
			OFFSET 14.031101 -45.186432 2.302906
			CHANNELS 3 Xrotation Yrotation Zrotation
			JOINT LeftFoot
			{
				OFFSET -5.814877 -43.242813 -9.839411
				CHANNELS 3 Xrotation Yrotation Zrotation
				JOINT LeftToe
				{
					OFFSET 13.341183 -15.608749 11.744761
					CHANNELS 3 Xrotation Yrotation Zrotation
					End Site
					{
						OFFSET 17.935585 -0.784567 15.403187
					}
				}
			}
		}
	}
	JOINT RightUpLeg
	{
		OFFSET -6.898575 -0.628738 7.241100
		CHANNELS 3 Xrotation Yrotation Zrotation
		JOINT RightLowLeg
		{
			OFFSET 22.255302 -33.322014 25.265724
			CHANNELS 3 Xrotation Yrotation Zrotation
			JOINT RightFoot
			{
				OFFSET -11.976189 -37.997185 -20.331375
				CHANNELS 3 Xrotation Yrotation Zrotation
				JOINT RightToe
				{
					OFFSET 2.521671 -23.419363 2.175175
					CHANNELS 3 Xrotation Yrotation Zrotation
					End Site
					{
						OFFSET 9.306534 -16.105337 14.613789
					}
				}
			}
		}
	}
}
MOTION
Frames: 11
Frame Time: 0.033333
17.978851 99.208694 9.951309 10.007144 11.382391 349.044714 -2.802481 0.457477 -10.492733 -0.468322 3.171016 -5.009516 -0.385234 2.343235 3.170737 -27.572497 15.238613 17.659034 -0.000002 0.000003 -0.000001 -32.369049 10.009625 -26.976414 -11.587086 37.803745 -37.885584 12.919154 -24.727190 -3.769227 0.000003 -0.000003 -0.000003 20.647950 -1.109508 7.920275 38.057128 -12.958520 -8.240166 11.109964 14.615659 -23.899998 -0.000002 0.000002 -0.000002 -15.022482 -8.693069 26.335908 23.691140 -1.443435 -6.768805 -5.848796 -15.100554 -7.212699 -0.000001 -0.000001 -0.000001 3.047486 3.372667 2.561818 -15.740518 -4.391008 -0.204886 -23.524234 -1.066208 29.741994 -0.000002 0.000004 0.000002 
17.958801 98.921539 10.374294 9.571099 6.189035 349.777375 0.279354 0.159645 -9.568835 3.009438 2.096551 -6.055885 -3.834777 0.563077 3.733950 -26.278919 13.752524 18.059447 -0.000003 0.000003 0.000000 -33.294023 12.421099 -27.491597 -10.817199 42.070048 -35.078387 15.607056 -26.351640 -2.132516 0.000002 0.000000 -0.000003 24.940729 -3.369637 10.660383 39.063170 -19.468949 -6.314579 12.069443 21.284884 -29.609068 -0.000006 0.000001 -0.000004 -14.064539 -8.122675 26.142348 23.859195 -1.890871 -8.254805 -5.244398 -12.492833 -3.906629 -0.000002 -0.000006 0.000001 2.698242 3.601584 3.370609 -17.049851 -4.277777 -3.041095 -22.856144 0.754843 31.704376 -0.000001 0.000003 0.000002 
17.986473 98.724854 10.719948 10.722474 1.486432 350.309338 1.908215 0.024169 -9.223437 1.957411 2.344842 -5.235959 -2.430310 -4.184615 1.882382 -26.370804 12.228578 19.275279 -0.000002 0.000003 -0.000001 -32.011171 11.454400 -28.580267 -9.195701 40.328237 -36.701099 12.868886 -24.711139 5.291675 0.000001 -0.000002 -0.000002 25.487413 -4.913369 11.091307 39.321741 -22.283711 -5.880870 7.573883 16.511113 -23.590119 0.000003 -0.000002 0.000002 -13.232502 -7.885746 26.149671 21.197282 -2.158026 -9.921169 -3.466035 -8.181107 -1.416503 0.000000 -0.000004 0.000000 1.074415 3.547089 4.317737 -18.976436 -3.964495 -5.507162 -21.556162 2.261511 32.641720 0.000003 0.000004 0.000002 
18.180727 98.636848 11.036560 10.098552 -3.509119 351.777200 5.081391 -0.080470 -10.951648 2.806103 1.357922 -3.839149 -3.564100 -6.072966 0.502026 -23.393698 9.220238 18.975068 -0.000001 0.000002 -0.000002 -29.488242 8.980496 -29.402288 -7.829695 40.566355 -40.274306 9.979822 -22.213517 10.818845 0.000003 -0.000004 -0.000000 26.988521 -5.056243 11.219968 38.673914 -22.954963 -7.068722 5.660137 7.773168 -18.856207 -0.000001 0.000003 -0.000001 -11.284595 -6.794825 24.008619 19.417239 -2.018901 -10.613501 -2.421756 -4.840736 0.725482 -0.000000 -0.000002 -0.000000 1.917612 3.551881 3.066247 -20.865060 -3.885182 -7.100503 -20.269725 2.854089 31.640039 -0.000001 0.000002 -0.000002 
18.452255 98.578400 11.285305 9.601084 -7.859169 352.158871 4.978939 -0.068047 -11.596095 3.364724 0.688257 -2.951703 -3.518417 -6.926876 -0.120903 -20.358694 7.232923 17.833586 -0.000005 0.000003 -0.000001 -28.137987 7.978058 -28.804824 -7.517289 40.189564 -43.381871 7.208694 -19.653845 13.128348 -0.000005 -0.000002 0.000005 27.584209 -6.075916 12.350450 40.093241 -23.510701 -7.009998 5.934212 0.901398 -16.031654 0.000003 -0.000003 -0.000000 -9.585846 -5.917676 23.018830 18.161126 -1.949026 -10.981206 -1.993531 -2.370281 2.559036 -0.000001 -0.000002 -0.000001 3.664641 4.097414 2.604021 -23.913807 -4.138851 -7.842585 -18.967408 3.386690 30.559820 0.000001 0.000004 0.000002 
18.827509 98.529961 11.553806 9.598956 -13.088078 352.395796 5.024685 -0.042919 -12.188022 1.626334 0.779551 -1.951010 -1.771924 -7.893027 -0.439646 -17.443842 4.584216 17.027501 -0.000003 0.000002 -0.000002 -27.893833 8.902338 -27.183711 -8.420110 42.584884 -45.274906 6.544863 -18.016876 11.612953 0.000003 -0.000002 0.000004 29.850119 -5.928128 13.714084 45.199812 -26.914395 -3.812501 6.156882 -4.808427 -13.341999 0.000006 -0.000002 -0.000003 -9.356132 -5.174162 22.026382 19.038114 -2.302274 -11.793942 -2.391308 0.152980 5.401238 -0.000001 -0.000004 0.000001 2.830288 3.308674 2.516690 -23.433880 -3.982946 -8.078158 -18.339237 2.979279 28.044904 -0.000002 0.000001 -0.000001 
19.251398 98.551323 11.900311 9.405364 -18.614579 352.593326 5.371199 -0.032980 -13.350775 1.095902 0.541706 -1.430272 -1.044854 -6.126707 0.031336 -14.340556 0.698670 16.700094 -0.000002 0.000000 -0.000000 -27.570970 8.683176 -25.961889 -9.608212 46.289046 -46.663320 7.568282 -17.804129 7.346127 -0.000002 -0.000006 0.000003 31.830714 -5.992252 15.700073 48.353365 -31.627908 1.745802 7.280074 -7.220479 -12.921610 -0.000002 -0.000000 -0.000001 -9.209088 -4.539278 21.038062 20.515440 -2.556752 -13.021179 -3.084446 2.586802 8.765110 -0.000001 -0.000004 0.000001 1.704276 2.257911 2.097307 -20.873140 -3.997999 -7.836202 -18.112553 1.729746 23.640289 -0.000001 -0.000001 0.000000 
19.695419 98.627495 12.243969 10.414347 -23.072541 352.297005 5.444373 0.011848 -13.650742 0.135026 0.396169 -0.493499 -0.304237 -5.108109 0.137901 -12.541000 -2.317293 17.078840 0.000001 0.000001 -0.000000 -28.370885 9.717956 -24.119596 -10.741381 48.135649 -47.894079 7.682645 -16.700916 2.828568 -0.000001 0.000000 0.000001 32.478782 -5.761683 17.068675 50.151477 -34.830201 6.696425 8.839466 -8.040571 -12.604333 0.000003 0.000001 -0.000003 -8.577626 -4.159864 21.091276 18.820199 -2.359558 -13.727406 -2.652085 5.954525 10.983223 -0.000002 0.000001 -0.000001 1.282896 1.687294 1.512209 -20.879110 -4.761526 -6.160781 -18.344724 0.392955 20.267850 0.000002 -0.000001 -0.000002 
20.227886 98.717110 12.609043 11.475855 -27.204999 351.927355 5.702464 -0.036176 -13.130472 0.532264 -0.144103 0.212005 -0.734875 -3.389564 0.240711 -10.801251 -5.841196 18.581477 -0.000005 0.000003 -0.000000 -27.815493 10.574787 -22.103933 -10.382418 49.737328 -50.854655 8.884573 -15.031397 -1.220959 -0.000003 -0.000003 0.000003 32.444116 -6.861955 18.098492 49.204140 -37.732198 10.278461 10.341316 -8.672187 -14.541420 -0.000003 0.000003 -0.000003 -8.718832 -4.068187 21.672351 17.585329 -2.410156 -15.221355 -2.522220 9.615060 13.391761 -0.000001 -0.000002 -0.000002 0.312819 0.405624 -0.432061 -20.509841 -5.904820 -2.258951 -20.567619 -2.387976 16.463466 0.000003 -0.000002 -0.000000 
20.820051 98.804642 13.003475 12.316785 -31.004851 351.740372 7.004974 -0.146445 -13.006366 -1.966446 -0.020927 2.145258 0.512734 -3.775023 -0.778053 -9.471203 -9.099681 20.313672 -0.000005 0.000002 -0.000002 -26.723463 11.565753 -20.105138 -9.074078 50.363240 -54.755287 10.057812 -13.367476 -4.170156 -0.000002 -0.000004 0.000006 30.458727 -8.229641 17.763396 48.111193 -40.280576 12.207342 11.379808 -7.527961 -17.005308 0.000004 0.000001 -0.000003 -9.195164 -4.434515 22.368390 17.623319 -2.680175 -17.642867 -2.239583 13.037445 15.405896 -0.000000 -0.000002 0.000000 -2.231508 -1.294121 -2.858344 -17.293774 -6.802496 2.997654 -22.345095 -4.139859 13.382015 0.000002 0.000000 -0.000000 
21.386810 98.908134 13.386930 13.177716 -33.914744 351.457328 6.938990 -0.132146 -12.268831 -2.994806 -0.274151 3.287392 1.022313 -4.145848 -1.482813 -8.358320 -11.561642 21.144596 -0.000003 0.000006 0.000000 -26.208407 12.092520 -18.653535 -8.801514 51.551003 -56.692179 10.150389 -11.583287 -6.475209 0.000003 -0.000003 0.000002 28.855145 -9.139830 17.837252 47.538608 -41.911062 13.923726 12.959143 -6.344528 -19.332577 0.000002 0.000003 -0.000001 -8.929788 -4.347829 22.975809 16.373388 -2.578296 -18.531575 -1.207754 15.798354 15.678283 0.000001 -0.000004 0.000002 -3.986571 -2.297414 -4.287983 -15.171886 -7.519176 7.305162 -22.845627 -4.606332 11.328985 0.000001 0.000000 0.000000 
